<svg width="18" height="21" viewBox="0 0 18 21" fill="none" xmlns="http://www.w3.org/2000/svg">
<g clip-path="url(#clip0)">
<path d="M17.9276 5.19231L12.8076 0.0580146C12.7641 0.0290073 12.7205 0 12.6625 0H2.97357C2.85753 0 2.77051 0.0870219 2.77051 0.203051V15.6349C2.77051 15.751 2.85753 15.838 2.97357 15.838H3.94537C4.0614 15.838 4.14843 15.751 4.14843 15.6349V1.37785H11.067V6.70069C11.067 6.81672 11.1541 6.90374 11.2701 6.90374H16.5932V16.5922H5.01869C4.90266 16.5922 4.81563 16.6792 4.81563 16.7952V17.767C4.81563 17.883 4.90266 17.97 5.01869 17.97H17.7971C17.9131 17.97 18.0002 17.883 18.0002 17.767V5.33734C18.0002 5.27933 17.9712 5.22131 17.9276 5.19231ZM12.4595 1.66792L16.3322 5.5404H12.4595V1.66792Z" fill="#3761FA"/>
<path d="M4.23494 17.3029C4.23494 16.8677 3.88683 16.5197 3.4517 16.5197C3.01656 16.5197 2.66846 16.8677 2.66846 17.3029C2.66846 17.738 3.01656 18.086 3.4517 18.086C3.88683 18.0715 4.23494 17.7235 4.23494 17.3029Z" fill="#3761FA"/>
<path d="M15.0121 19.3768H1.37792V2.97319C1.37792 2.85716 1.29089 2.77014 1.17486 2.77014H0.203062C0.0870266 2.77014 0 2.85716 0 2.97319V20.5516C0 20.6677 0.0870266 20.7547 0.203062 20.7547H15.0121C15.1281 20.7547 15.2151 20.6677 15.2151 20.5516V19.5799C15.2297 19.4639 15.1281 19.3768 15.0121 19.3768Z" fill="#3761FA"/>
</g>
<defs>
<clipPath id="clip0">
<rect width="18" height="20.7692" fill="white"/>
</clipPath>
</defs>
</svg>
