<svg width="22" height="24" viewBox="0 0 22 24" fill="none" xmlns="http://www.w3.org/2000/svg">
<path d="M17 12C17.5523 12 18 11.5523 18 11C18 10.4477 17.5523 10 17 10C16.4477 10 16 10.4477 16 11C16 11.5523 16.4477 12 17 12Z" fill="#3761FA"/>
<path d="M10.125 15V19C10.125 19.495 10.525 19.895 11.02 19.895C11.515 19.895 11.915 19.495 11.915 19V15C11.915 14.505 11.515 14.105 11.02 14.105C10.525 14.105 10.125 14.505 10.125 15Z" fill="#3761FA"/>
<path d="M21 10C20.45 10 20 10.45 20 11V22H2V12H14C14.55 12 15 11.55 15 11C15 10.45 14.55 10 14 10H6.02V7C6.02 4.245 8.265 2 11.02 2C13.775 2 16.02 4.245 16.02 7C16.02 7.55 16.47 8 17.02 8C17.57 8 18.02 7.55 18.02 7C18.02 3.14 14.88 0 11.02 0C7.16 0 4.02 3.14 4.02 7V10H1C0.45 10 0 10.45 0 11V23C0 23.55 0.45 24 1 24H21C21.55 24 22 23.55 22 23V11C22 10.45 21.55 10 21 10Z" fill="#3761FA"/>
</svg>
