<svg width="20" height="24" viewBox="0 0 20 24" fill="none" xmlns="http://www.w3.org/2000/svg">
<path d="M4.54544 24.0001C5.04752 24.0001 5.45453 23.5703 5.45453 23.0401C5.45453 22.5099 5.04752 22.0801 4.54544 22.0801C4.04337 22.0801 3.63635 22.5099 3.63635 23.0401C3.63635 23.5703 4.04337 24.0001 4.54544 24.0001Z" fill="#3761FA"/>
<path d="M10 11.52C11.4591 11.52 12.8273 10.92 13.8591 9.8352C14.8909 8.7504 15.4546 7.3008 15.4546 5.76C15.4546 4.2192 14.8864 2.7744 13.8591 1.6848C12.8318 0.5952 11.4591 0 10 0C8.54093 0 7.17274 0.6 6.14093 1.6848C5.10911 2.7696 4.54547 4.2192 4.54547 5.76C4.54547 7.3008 5.11365 8.7456 6.14093 9.8352C7.1682 10.9248 8.54093 11.52 10 11.52ZM7.42729 3.0432C8.13638 2.2944 9.0682 1.92 10 1.92C10.9318 1.92 11.8637 2.2944 12.5727 3.0432C13.9909 4.5408 13.9909 6.9792 12.5727 8.472C11.1546 9.9648 8.84547 9.9696 7.43183 8.472C6.0182 6.9744 6.00911 4.5408 7.42729 3.0432Z" fill="#3761FA"/>
<path d="M10 12.48C4.48636 12.48 0 17.2176 0 23.04C0 23.568 0.409091 24 0.909091 24C1.40909 24 1.81818 23.568 1.81818 23.04C1.81818 18.2784 5.49091 14.4 10 14.4C14.2045 14.4 17.6773 17.7648 18.1318 22.08H7.27273C6.77273 22.08 6.36364 22.512 6.36364 23.04C6.36364 23.568 6.77273 24 7.27273 24H19.0909C19.5909 24 20 23.568 20 23.04C20 17.2176 15.5136 12.48 10 12.48Z" fill="#3761FA"/>
</svg>
