<svg width="16" height="16" viewBox="0 0 16 16" fill="none" xmlns="http://www.w3.org/2000/svg">
<path d="M6 6.00001C6 4.89534 6.896 4.00001 8.00067 4.00067C9.10533 4.00067 10.0007 4.89667 10 6.00134C10 6.84867 9.46533 7.60401 8.66667 7.88667C8.26667 8.02801 8 8.40601 8 8.83001V9.50067" stroke="#CCCCD8" stroke-width="1.5" stroke-linecap="round" stroke-linejoin="round"/>
<path d="M8 0.5C12.142 0.5 15.5 3.858 15.5 8C15.5 12.142 12.142 15.5 8 15.5C3.858 15.5 0.5 12.142 0.5 8C0.5 3.858 3.858 0.5 8 0.5Z" stroke="#CCCCD8" stroke-width="1.5" stroke-linecap="round" stroke-linejoin="round"/>
<path d="M8.75 11.7074C8.75 12.1216 8.41421 12.4574 8 12.4574C7.58579 12.4574 7.25 12.1216 7.25 11.7074C7.25 11.2932 7.58579 10.9574 8 10.9574C8.41421 10.9574 8.75 11.2932 8.75 11.7074Z" fill="#CCCCD8"/>
</svg>
